<svg xmlns="http://www.w3.org/2000/svg" xmlns:xlink="http://www.w3.org/1999/xlink" aria-hidden="true" role="img" class="iconify iconify--logos" width="31.88" height="32" preserveAspectRatio="xMidYMid meet" viewBox="0 0 256 257"><defs><linearGradient id="IconifyId1813088fe1fbc01fb466" x1="-.828%" x2="57.636%" y1="7.652%" y2="78.411%"><stop offset="0%" stop-color="#41D1FF"></stop><stop offset="100%" stop-color="#BD34FE"></stop></linearGradient><linearGradient id="IconifyId1813088fe1fbc01fb467" x1="43.376%" x2="50.316%" y1="2.242%" y2="89.03%"><stop offset="0%" stop-color="#FFEA83"></stop><stop offset="8.333%" stop-color="#FFDD35"></stop><stop offset="100%" stop-color="#FFA800"></stop></linearGradient></defs><path fill="url(#IconifyId1813088fe1fbc01fb466)" d="M255.153 37.938L134.897 252.976c-2.483 4.44-8.862 4.466-11.382.048L.875 37.958c-2.746-4.814 1.371-10.646 6.827-9.67l120.385 21.517a6.537 6.537 0 0 0 2.322-.004l117.867-21.483c5.438-.991 9.574 4.796 6.877 9.62Z"></path><path fill="url(#IconifyId1813088fe1fbc01fb467)" d="M185.432.063L96.44 17.501a3.268 3.268 0 0 0-2.634 3.014l-5.53 94.076a3.268 3.268 0 0 0 3.997 3.378l24.777-5.274c4.35-.926 7.224 4.514 5.453 8.693l-7.98 18.773c-1.762 4.15-7.215 5.549-10.403 2.77l-18.215-15.626c-3.09-2.655-7.586-1.11-8.607 3.08l-22.607 91.01c-1.205 4.853 4.865 8.607 8.813 5.516l109.844-85.143c3.927-3.043 9.712-.676 10.26 4.21l7.127 65.673c.628 5.784 9.234 7.192 12.05 2.378l40.812-67.676c2.728-4.524 9.892-4.226 12.174.516l20.93 44.643c2.316 4.94 9.818 4.535 11.526-.447l26.925-78.643c1.72-5.02-2.75-9.723-7.925-8.536l-57.12 13.538c-4.785 1.134-9.192-2.776-8.087-7.547l15.716-72.495c1.135-5.23-3.807-9.736-8.987-8.419Z"></path></svg>
